<svg xmlns="http://www.w3.org/2000/svg" viewBox="0 0 64 64" width="64" height="64" role="img" aria-label="Email">
  <circle cx="32" cy="32" r="30" fill="#F3E6D5"/>
  <g transform="translate(16 20)">
    <path fill="#3A3A3A" d="M4 4h24a4 4 0 0 1 4 4v16a4 4 0 0 1-4 4H4a4 4 0 0 1-4-4V8a4 4 0 0 1 4-4zm0 4v.2l12 8 12-8V8H4zm24 16V12.3l-12 8-12-8V24h24z"/>
  </g>
</svg>
<svg xmlns="http://www.w3.org/2000/svg" viewBox="0 0 64 64" width="64" height="64" role="img" aria-label="Email">
  <circle cx="32" cy="32" r="30" fill="#F3E6D5"/>
  <g transform="translate(16 20)">
    <path fill="#3A3A3A" d="M4 4h24a4 4 0 0 1 4 4v16a4 4 0 0 1-4 4H4a4 4 0 0 1-4-4V8a4 4 0 0 1 4-4zm0 4v.2l12 8 12-8V8H4zm24 16V12.3l-12 8-12-8V24h24z"/>
  </g>
</svg>
