<svg xmlns="http://www.w3.org/2000/svg" xmlns:xlink="http://www.w3.org/1999/xlink" viewBox="0 0 64 64" width="64" height="64" role="img" aria-labelledby="link-website-title" font-family="ui-sans-serif, -apple-system, 'Segoe UI', Helvetica, Arial, sans-serif">
<title id="link-website-title">Website</title>
<defs><radialGradient id="mat-highlight"><stop offset="0" stop-color="#ffffff" stop-opacity="0.85"/><stop offset="1" stop-color="#ffffff" stop-opacity="0"/></radialGradient><radialGradient id="mat-shadow"><stop offset="0" stop-color="#000000" stop-opacity="0.55"/><stop offset="0.7" stop-color="#000000" stop-opacity="0.18"/><stop offset="1" stop-color="#000000" stop-opacity="0"/></radialGradient><linearGradient id="mat-gloss" x1="0" y1="0" x2="0" y2="1"><stop offset="0" stop-color="#ffffff" stop-opacity="0.45"/><stop offset="1" stop-color="#ffffff" stop-opacity="0"/></linearGradient><linearGradient id="mat-rim" x1="0" y1="0" x2="0" y2="1"><stop offset="0" stop-color="#ffffff" stop-opacity="0.7"/><stop offset="0.5" stop-color="#ffffff" stop-opacity="0.08"/><stop offset="1" stop-color="#000000" stop-opacity="0.25"/></linearGradient><filter id="mat-bevel" x="-15%" y="-30%" width="130%" height="170%" color-interpolation-filters="sRGB"><feGaussianBlur in="SourceAlpha" stdDeviation="2" result="blur"/><feSpecularLighting in="blur" surfaceScale="4" specularConstant="0.7" specularExponent="24" lighting-color="#ffffff" result="spec"><feDistantLight azimuth="225" elevation="42"/></feSpecularLighting><feComposite in="spec" in2="SourceAlpha" operator="in" result="specIn"/><feComposite in="SourceGraphic" in2="specIn" operator="arithmetic" k1="0" k2="1" k3="1" k4="0"/></filter><filter id="mat-bevel-soft" x="-15%" y="-30%" width="130%" height="170%" color-interpolation-filters="sRGB"><feGaussianBlur in="SourceAlpha" stdDeviation="3.5" result="blur"/><feSpecularLighting in="blur" surfaceScale="6" specularConstant="0.55" specularExponent="14" lighting-color="#ffffff" result="spec"><feDistantLight azimuth="225" elevation="42"/></feSpecularLighting><feComposite in="spec" in2="SourceAlpha" operator="in" result="specIn"/><feComposite in="SourceGraphic" in2="specIn" operator="arithmetic" k1="0" k2="1" k3="1" k4="0"/></filter><filter id="mat-drop" x="-20%" y="-30%" width="140%" height="180%"><feDropShadow dx="0" dy="6" stdDeviation="5" flood-color="#000000" flood-opacity="0.35"/></filter><filter id="mat-drop-tight" x="-20%" y="-30%" width="140%" height="180%"><feDropShadow dx="0" dy="2" stdDeviation="2" flood-color="#000000" flood-opacity="0.4"/></filter><clipPath id="link-website-clip"><circle cx="32" cy="32" r="30"/></clipPath><linearGradient id="link-website-shine" x1="0" y1="0" x2="1" y2="0"><stop offset="0" stop-color="#ffffff" stop-opacity="0"/><stop offset="0.5" stop-color="#ffffff" stop-opacity="0.7"/><stop offset="1" stop-color="#ffffff" stop-opacity="0"/></linearGradient></defs>

<circle cx="32" cy="32" r="30" fill="#fdefd9"/><g clip-path="url(#link-website-clip)"><rect x="-70" y="0" width="34" height="64" fill="url(#link-website-shine)" transform="skewX(-22)"><animate attributeName="x" from="-70" to="110" dur="7s" begin="0.6s" repeatCount="indefinite"/></rect></g><g transform="translate(32 32) scale(1.17) translate(-12 -12)" fill="#3d4a5c"><path d="M11.99 2C6.47 2 2 6.48 2 12s4.47 10 9.99 10C17.52 22 22 17.52 22 12S17.52 2 11.99 2zm6.93 6h-2.95a15.65 15.65 0 0 0-1.38-3.56A8.03 8.03 0 0 1 18.92 8zM12 4.04c.83 1.2 1.48 2.53 1.91 3.96h-3.82c.43-1.43 1.08-2.76 1.91-3.96zM4.26 14C4.1 13.36 4 12.69 4 12s.1-1.36.26-2h3.38c-.08.66-.14 1.32-.14 2 0 .68.06 1.34.14 2H4.26zm.82 2h2.95c.32 1.25.78 2.45 1.38 3.56A7.987 7.987 0 0 1 5.08 16zm2.95-8H5.08a7.987 7.987 0 0 1 4.33-3.56A15.65 15.65 0 0 0 8.03 8zM12 19.96c-.83-1.2-1.48-2.53-1.91-3.96h3.82c-.43 1.43-1.08 2.76-1.91 3.96zM14.34 14H9.66c-.09-.66-.16-1.32-.16-2 0-.68.07-1.35.16-2h4.68c.09.65.16 1.32.16 2 0 .68-.07 1.34-.16 2zm.25 5.56c.6-1.11 1.06-2.31 1.38-3.56h2.95a8.03 8.03 0 0 1-4.33 3.56zM16.36 14c.08-.66.14-1.32.14-2 0-.68-.06-1.34-.14-2h3.38c.16.64.26 1.31.26 2s-.1 1.36-.26 2h-3.38z"/></g>
</svg>