<svg xmlns="http://www.w3.org/2000/svg" viewBox="0 0 128 128">
  <rect width="128" height="128" rx="20" fill="#1e293b"/>
  <g transform="translate(24, 24) scale(3.33)">
    <path fill="#008CC1" d="M11.228 9.927c-.178-.138-.4-.143-.583-.013-1.148.814-2.32.827-3.192.035-.347-.315-.893-.313-1.237.003-.173.159-.27.37-.274.596-.004.227.086.442.254.604 1.263 1.161 3.173 1.15 4.451-.024.17-.157.27-.37.277-.598.007-.228-.083-.443-.253-.603h-.001z"/>
    <path fill="#008CC1" d="M19.858 8.33c-.67-1.42-1.694-2.587-3.047-3.471-1.312-.858-2.796-1.294-4.41-1.294h-.005c-.805 0-1.595.107-2.35.32-.71.2-1.39.494-2.022.876-.594.358-1.133.787-1.605 1.275-.5.518-.924 1.106-1.26 1.748-.357.682-.619 1.41-.778 2.166-.17.803-.229 1.623-.177 2.437.048.747.181 1.482.396 2.185.203.663.484 1.294.838 1.879.333.552.737 1.058 1.2 1.506.488.47 1.037.876 1.635 1.209.633.351 1.31.616 2.016.787.747.181 1.519.253 2.292.214.73-.037 1.447-.163 2.133-.376.647-.201 1.26-.48 1.825-.827.531-.328 1.013-.72 1.436-1.166.448-.474.836-1.006 1.15-1.583.334-.611.584-1.266.745-1.943.17-.716.252-1.454.242-2.193-.009-.699-.102-1.397-.278-2.073-.166-.638-.414-1.25-.738-1.822l-.001-.001-.037-.054zm-7.46 10.137c-3.538 0-6.41-2.873-6.41-6.412s2.872-6.412 6.41-6.412 6.41 2.873 6.41 6.412-2.872 6.412-6.41 6.412z"/>
    <circle fill="#008CC1" cx="7.567" cy="11.18" r="1.655"/>
    <circle fill="#008CC1" cx="16.16" cy="11.18" r="1.655"/>
    <circle fill="#008CC1" cx="11.863" cy="5.993" r="1.655"/>
  </g>
</svg>
