<svg xmlns="http://www.w3.org/2000/svg" viewBox="0 0 128 128">
  <rect width="128" height="128" rx="20" fill="#1e293b"/>
  <g transform="translate(20, 38) scale(0.68)">
    <path d="M18.46875 0c-1.83-.04-3.72.17-5.656.656C3.86 2.893-6.161 14.41 4.781 27.688l6.532 7.906 1.843 2.25c1.238 1.471 3.263 1.445 4.75.219 1.495-1.232 1.92-3.253.688-4.75l-.75-.906.031.001-.5-.625-2.562-3.094c-2.364-2.843-.942-5.922 2.501-7.97 4.677-2.573 14.09-1.297 16.688 3.376C32.988 4.98 26.398.179 18.468 0zm1.313 13.938c-.844-.03-1.726.29-2.469.906-1.497 1.236-1.919 3.26-.687 4.75l.343.406c2.833 3.404 6.594 7.97 6.594 7.97 4.752 5.766 2.631 12.857-3.813 16.905-5.676 3.566-16.09 2.29-18.687-3.375 2.78 8.213 12.11 13.482 22.437 10.906 8.953-2.24 18.972-14.064 8.031-27.343l-7.656-9.25-.875-1.094c-.619-.736-1.438-1.152-2.282-1.18zM53.531 6.313c-5.669 0-12.157 2.924-12.157 9.969 0 6.706 5.334 8.589 10.626 9.875 5.355 1.286 10.656 2.031 10.656 6.5 0 4.403-4.535 5.219-7.875 5.219-4.409 0-8.563-1.604-8.75-6.75h-5.343c.313 8.668 6.474 11.843 13.781 11.843 6.616 0 13.875-2.697 13.875-11.031 0-6.774-5.302-8.682-10.656-9.97-4.975-1.286-10.657-1.96-10.657-6.093 0-3.523 3.72-4.47 6.933-4.47 3.53 0 7.182 1.404 7.562 5.876h5.344c-.44-8.535-6.163-10.968-13.344-10.968zm30.875 0c-7.247 0-13.5 3.05-13.813 11.719h5.344c.253-5.148 3.59-6.626 8.126-6.626 3.404 0 7.25.8 7.25 5.813 0 4.334-5.015 3.937-10.938 5.156-5.54 1.152-11.03 2.856-11.03 10.781 0 6.978 4.858 9.813 10.78 9.813 4.532 0 8.478-1.714 11.438-5.438 0 3.792 1.79 5.438 4.563 5.438 1.698 0 2.866-.36 3.812-.969v-4.469c-.693.272-1.184.344-1.624.344-1.7 0-1.688-1.195-1.688-3.906V15.938c0-8.195-6.36-9.625-12.22-9.625zm28.875 0c-5.669 0-12.125 2.924-12.125 9.969 0 6.706 5.332 8.589 10.625 9.875 5.357 1.286 10.656 2.031 10.656 6.5 0 4.403-4.534 5.219-7.874 5.219-4.404 0-8.563-1.604-8.75-6.75h-5.376c.314 8.668 6.507 11.843 13.813 11.843 6.612 0 13.844-2.697 13.844-11.031 0-6.774-5.303-8.682-10.657-9.97-4.974-1.286-10.624-1.96-10.624-6.093 0-3.523 3.687-4.47 6.906-4.47 3.526 0 7.18 1.404 7.562 5.876h5.376c-.437-8.535-6.163-10.968-13.376-10.968zm-22.031 17.75v5.906c0 3.184-2.882 7.907-9.938 7.907-3.27 0-6.031-1.36-6.031-5.156 0-4.266 3.037-5.603 6.562-6.282 3.591-.675 7.614-.574 9.688-2.375z" fill="#0066B3"/>
  </g>
</svg>
