<svg xmlns="http://www.w3.org/2000/svg" xmlns:xlink="http://www.w3.org/1999/xlink" viewBox="0 0 1200 122" width="1200" height="122" role="img" aria-labelledby="skills-marquee-title" font-family="ui-sans-serif, -apple-system, 'Segoe UI', Helvetica, Arial, sans-serif">
<title id="skills-marquee-title">Tools and skills</title>
<defs><linearGradient id="marquee-left" x1="0" y1="0" x2="1" y2="0"><stop offset="0" stop-color="#ffffff"/><stop offset="1" stop-color="#ffffff" stop-opacity="0"/></linearGradient><linearGradient id="marquee-right" x1="0" y1="0" x2="1" y2="0"><stop offset="0" stop-color="#ffffff" stop-opacity="0"/><stop offset="1" stop-color="#ffffff"/></linearGradient></defs>
<rect width="1200" height="122" fill="#ffffff"/>
<g transform="translate(0 16)"><g><animateTransform attributeName="transform" type="translate" from="0 0" to="-1973.6 0" dur="58.05s" repeatCount="indefinite"/><g transform="translate(0 0)"><rect width="86.8" height="30" rx="15" fill="#E84A27" fill-opacity="0.16" stroke="#E84A27" stroke-opacity="0.55"/><text x="43.4" y="20.04" text-anchor="middle" font-size="14" font-weight="600" fill="#13294B">PyTorch</text></g><g transform="translate(98.8 0)"><rect width="53.2" height="30" rx="15" fill="#E84A27" fill-opacity="0.16" stroke="#E84A27" stroke-opacity="0.55"/><text x="26.6" y="20.04" text-anchor="middle" font-size="14" font-weight="600" fill="#13294B">JAX</text></g><g transform="translate(164 0)"><rect width="112" height="30" rx="15" fill="#E84A27" fill-opacity="0.16" stroke="#E84A27" stroke-opacity="0.55"/><text x="56" y="20.04" text-anchor="middle" font-size="14" font-weight="600" fill="#13294B">TensorFlow</text></g><g transform="translate(288 0)"><rect width="78.4" height="30" rx="15" fill="#E84A27" fill-opacity="0.16" stroke="#E84A27" stroke-opacity="0.55"/><text x="39.2" y="20.04" text-anchor="middle" font-size="14" font-weight="600" fill="#13294B">OpenCV</text></g><g transform="translate(378.4 0)"><rect width="162.4" height="30" rx="15" fill="#E84A27" fill-opacity="0.16" stroke="#E84A27" stroke-opacity="0.55"/><text x="81.2" y="20.04" text-anchor="middle" font-size="14" font-weight="600" fill="#13294B">Diffusion Models</text></g><g transform="translate(552.8 0)"><rect width="128.8" height="30" rx="15" fill="#E84A27" fill-opacity="0.16" stroke="#E84A27" stroke-opacity="0.55"/><text x="64.4" y="20.04" text-anchor="middle" font-size="14" font-weight="600" fill="#13294B">World Models</text></g><g transform="translate(693.6 0)"><rect width="170.8" height="30" rx="15" fill="#E84A27" fill-opacity="0.16" stroke="#E84A27" stroke-opacity="0.55"/><text x="85.4" y="20.04" text-anchor="middle" font-size="14" font-weight="600" fill="#13294B">3D Reconstruction</text></g><g transform="translate(876.4 0)"><rect width="196" height="30" rx="15" fill="#E84A27" fill-opacity="0.16" stroke="#E84A27" stroke-opacity="0.55"/><text x="98" y="20.04" text-anchor="middle" font-size="14" font-weight="600" fill="#13294B">Distributed Training</text></g><g transform="translate(1084.4 0)"><rect width="61.6" height="30" rx="15" fill="#E84A27" fill-opacity="0.16" stroke="#E84A27" stroke-opacity="0.55"/><text x="30.8" y="20.04" text-anchor="middle" font-size="14" font-weight="600" fill="#13294B">CUDA</text></g><g transform="translate(1158 0)"><rect width="61.6" height="30" rx="15" fill="#E84A27" fill-opacity="0.16" stroke="#E84A27" stroke-opacity="0.55"/><text x="30.8" y="20.04" text-anchor="middle" font-size="14" font-weight="600" fill="#13294B">PEFT</text></g><g transform="translate(1231.6 0)"><rect width="103.6" height="30" rx="15" fill="#E84A27" fill-opacity="0.16" stroke="#E84A27" stroke-opacity="0.55"/><text x="51.8" y="20.04" text-anchor="middle" font-size="14" font-weight="600" fill="#13294B">LangGraph</text></g><g transform="translate(1347.2 0)"><rect width="103.6" height="30" rx="15" fill="#E84A27" fill-opacity="0.16" stroke="#E84A27" stroke-opacity="0.55"/><text x="51.8" y="20.04" text-anchor="middle" font-size="14" font-weight="600" fill="#13294B">LangChain</text></g><g transform="translate(1462.8 0)"><rect width="95.2" height="30" rx="15" fill="#E84A27" fill-opacity="0.16" stroke="#E84A27" stroke-opacity="0.55"/><text x="47.6" y="20.04" text-anchor="middle" font-size="14" font-weight="600" fill="#13294B">GraphRAG</text></g><g transform="translate(1570 0)"><rect width="53.2" height="30" rx="15" fill="#E84A27" fill-opacity="0.16" stroke="#E84A27" stroke-opacity="0.55"/><text x="26.6" y="20.04" text-anchor="middle" font-size="14" font-weight="600" fill="#13294B">MCP</text></g><g transform="translate(1635.2 0)"><rect width="162.4" height="30" rx="15" fill="#E84A27" fill-opacity="0.16" stroke="#E84A27" stroke-opacity="0.55"/><text x="81.2" y="20.04" text-anchor="middle" font-size="14" font-weight="600" fill="#13294B">Long-Term Memory</text></g><g transform="translate(1809.6 0)"><rect width="53.2" height="30" rx="15" fill="#1a7f37" fill-opacity="0.16" stroke="#1a7f37" stroke-opacity="0.55"/><text x="26.6" y="20.04" text-anchor="middle" font-size="14" font-weight="600" fill="#13294B">SAS</text></g><g transform="translate(1874.8 0)"><rect width="86.8" height="30" rx="15" fill="#4c5b73" fill-opacity="0.16" stroke="#4c5b73" stroke-opacity="0.55"/><text x="43.4" y="20.04" text-anchor="middle" font-size="14" font-weight="600" fill="#13294B">Arduino</text></g><g transform="translate(1973.6 0)"><g transform="translate(0 0)"><rect width="86.8" height="30" rx="15" fill="#E84A27" fill-opacity="0.16" stroke="#E84A27" stroke-opacity="0.55"/><text x="43.4" y="20.04" text-anchor="middle" font-size="14" font-weight="600" fill="#13294B">PyTorch</text></g><g transform="translate(98.8 0)"><rect width="53.2" height="30" rx="15" fill="#E84A27" fill-opacity="0.16" stroke="#E84A27" stroke-opacity="0.55"/><text x="26.6" y="20.04" text-anchor="middle" font-size="14" font-weight="600" fill="#13294B">JAX</text></g><g transform="translate(164 0)"><rect width="112" height="30" rx="15" fill="#E84A27" fill-opacity="0.16" stroke="#E84A27" stroke-opacity="0.55"/><text x="56" y="20.04" text-anchor="middle" font-size="14" font-weight="600" fill="#13294B">TensorFlow</text></g><g transform="translate(288 0)"><rect width="78.4" height="30" rx="15" fill="#E84A27" fill-opacity="0.16" stroke="#E84A27" stroke-opacity="0.55"/><text x="39.2" y="20.04" text-anchor="middle" font-size="14" font-weight="600" fill="#13294B">OpenCV</text></g><g transform="translate(378.4 0)"><rect width="162.4" height="30" rx="15" fill="#E84A27" fill-opacity="0.16" stroke="#E84A27" stroke-opacity="0.55"/><text x="81.2" y="20.04" text-anchor="middle" font-size="14" font-weight="600" fill="#13294B">Diffusion Models</text></g><g transform="translate(552.8 0)"><rect width="128.8" height="30" rx="15" fill="#E84A27" fill-opacity="0.16" stroke="#E84A27" stroke-opacity="0.55"/><text x="64.4" y="20.04" text-anchor="middle" font-size="14" font-weight="600" fill="#13294B">World Models</text></g><g transform="translate(693.6 0)"><rect width="170.8" height="30" rx="15" fill="#E84A27" fill-opacity="0.16" stroke="#E84A27" stroke-opacity="0.55"/><text x="85.4" y="20.04" text-anchor="middle" font-size="14" font-weight="600" fill="#13294B">3D Reconstruction</text></g><g transform="translate(876.4 0)"><rect width="196" height="30" rx="15" fill="#E84A27" fill-opacity="0.16" stroke="#E84A27" stroke-opacity="0.55"/><text x="98" y="20.04" text-anchor="middle" font-size="14" font-weight="600" fill="#13294B">Distributed Training</text></g><g transform="translate(1084.4 0)"><rect width="61.6" height="30" rx="15" fill="#E84A27" fill-opacity="0.16" stroke="#E84A27" stroke-opacity="0.55"/><text x="30.8" y="20.04" text-anchor="middle" font-size="14" font-weight="600" fill="#13294B">CUDA</text></g><g transform="translate(1158 0)"><rect width="61.6" height="30" rx="15" fill="#E84A27" fill-opacity="0.16" stroke="#E84A27" stroke-opacity="0.55"/><text x="30.8" y="20.04" text-anchor="middle" font-size="14" font-weight="600" fill="#13294B">PEFT</text></g><g transform="translate(1231.6 0)"><rect width="103.6" height="30" rx="15" fill="#E84A27" fill-opacity="0.16" stroke="#E84A27" stroke-opacity="0.55"/><text x="51.8" y="20.04" text-anchor="middle" font-size="14" font-weight="600" fill="#13294B">LangGraph</text></g><g transform="translate(1347.2 0)"><rect width="103.6" height="30" rx="15" fill="#E84A27" fill-opacity="0.16" stroke="#E84A27" stroke-opacity="0.55"/><text x="51.8" y="20.04" text-anchor="middle" font-size="14" font-weight="600" fill="#13294B">LangChain</text></g><g transform="translate(1462.8 0)"><rect width="95.2" height="30" rx="15" fill="#E84A27" fill-opacity="0.16" stroke="#E84A27" stroke-opacity="0.55"/><text x="47.6" y="20.04" text-anchor="middle" font-size="14" font-weight="600" fill="#13294B">GraphRAG</text></g><g transform="translate(1570 0)"><rect width="53.2" height="30" rx="15" fill="#E84A27" fill-opacity="0.16" stroke="#E84A27" stroke-opacity="0.55"/><text x="26.6" y="20.04" text-anchor="middle" font-size="14" font-weight="600" fill="#13294B">MCP</text></g><g transform="translate(1635.2 0)"><rect width="162.4" height="30" rx="15" fill="#E84A27" fill-opacity="0.16" stroke="#E84A27" stroke-opacity="0.55"/><text x="81.2" y="20.04" text-anchor="middle" font-size="14" font-weight="600" fill="#13294B">Long-Term Memory</text></g><g transform="translate(1809.6 0)"><rect width="53.2" height="30" rx="15" fill="#1a7f37" fill-opacity="0.16" stroke="#1a7f37" stroke-opacity="0.55"/><text x="26.6" y="20.04" text-anchor="middle" font-size="14" font-weight="600" fill="#13294B">SAS</text></g><g transform="translate(1874.8 0)"><rect width="86.8" height="30" rx="15" fill="#4c5b73" fill-opacity="0.16" stroke="#4c5b73" stroke-opacity="0.55"/><text x="43.4" y="20.04" text-anchor="middle" font-size="14" font-weight="600" fill="#13294B">Arduino</text></g></g></g></g>
<g transform="translate(0 68)"><g><animateTransform attributeName="transform" type="translate" from="-2749.6 0" to="0 0" dur="80.87s" repeatCount="indefinite"/><g transform="translate(0 0)"><rect width="78.4" height="30" rx="15" fill="#0969da" fill-opacity="0.16" stroke="#0969da" stroke-opacity="0.55"/><text x="39.2" y="20.04" text-anchor="middle" font-size="14" font-weight="600" fill="#13294B">Python</text></g><g transform="translate(90.4 0)"><rect width="53.2" height="30" rx="15" fill="#0969da" fill-opacity="0.16" stroke="#0969da" stroke-opacity="0.55"/><text x="26.6" y="20.04" text-anchor="middle" font-size="14" font-weight="600" fill="#13294B">C++</text></g><g transform="translate(155.6 0)"><rect width="112" height="30" rx="15" fill="#0969da" fill-opacity="0.16" stroke="#0969da" stroke-opacity="0.55"/><text x="56" y="20.04" text-anchor="middle" font-size="14" font-weight="600" fill="#13294B">TypeScript</text></g><g transform="translate(279.6 0)"><rect width="112" height="30" rx="15" fill="#0969da" fill-opacity="0.16" stroke="#0969da" stroke-opacity="0.55"/><text x="56" y="20.04" text-anchor="middle" font-size="14" font-weight="600" fill="#13294B">JavaScript</text></g><g transform="translate(403.6 0)"><rect width="61.6" height="30" rx="15" fill="#0969da" fill-opacity="0.16" stroke="#0969da" stroke-opacity="0.55"/><text x="30.8" y="20.04" text-anchor="middle" font-size="14" font-weight="600" fill="#13294B">Java</text></g><g transform="translate(477.2 0)"><rect width="78.4" height="30" rx="15" fill="#0969da" fill-opacity="0.16" stroke="#0969da" stroke-opacity="0.55"/><text x="39.2" y="20.04" text-anchor="middle" font-size="14" font-weight="600" fill="#13294B">Kotlin</text></g><g transform="translate(567.6 0)"><rect width="61.6" height="30" rx="15" fill="#0969da" fill-opacity="0.16" stroke="#0969da" stroke-opacity="0.55"/><text x="30.8" y="20.04" text-anchor="middle" font-size="14" font-weight="600" fill="#13294B">Ruby</text></g><g transform="translate(641.2 0)"><rect width="53.2" height="30" rx="15" fill="#0969da" fill-opacity="0.16" stroke="#0969da" stroke-opacity="0.55"/><text x="26.6" y="20.04" text-anchor="middle" font-size="14" font-weight="600" fill="#13294B">PHP</text></g><g transform="translate(706.4 0)"><rect width="36.4" height="30" rx="15" fill="#0969da" fill-opacity="0.16" stroke="#0969da" stroke-opacity="0.55"/><text x="18.2" y="20.04" text-anchor="middle" font-size="14" font-weight="600" fill="#13294B">R</text></g><g transform="translate(754.8 0)"><rect width="70" height="30" rx="15" fill="#0969da" fill-opacity="0.16" stroke="#0969da" stroke-opacity="0.55"/><text x="35" y="20.04" text-anchor="middle" font-size="14" font-weight="600" fill="#13294B">React</text></g><g transform="translate(836.8 0)"><rect width="86.8" height="30" rx="15" fill="#0969da" fill-opacity="0.16" stroke="#0969da" stroke-opacity="0.55"/><text x="43.4" y="20.04" text-anchor="middle" font-size="14" font-weight="600" fill="#13294B">Next.js</text></g><g transform="translate(935.6 0)"><rect width="78.4" height="30" rx="15" fill="#0969da" fill-opacity="0.16" stroke="#0969da" stroke-opacity="0.55"/><text x="39.2" y="20.04" text-anchor="middle" font-size="14" font-weight="600" fill="#13294B">Vue.js</text></g><g transform="translate(1026 0)"><rect width="112" height="30" rx="15" fill="#0969da" fill-opacity="0.16" stroke="#0969da" stroke-opacity="0.55"/><text x="56" y="20.04" text-anchor="middle" font-size="14" font-weight="600" fill="#13294B">Angular.js</text></g><g transform="translate(1150 0)"><rect width="86.8" height="30" rx="15" fill="#0969da" fill-opacity="0.16" stroke="#0969da" stroke-opacity="0.55"/><text x="43.4" y="20.04" text-anchor="middle" font-size="14" font-weight="600" fill="#13294B">Node.js</text></g><g transform="translate(1248.8 0)"><rect width="70" height="30" rx="15" fill="#0969da" fill-opacity="0.16" stroke="#0969da" stroke-opacity="0.55"/><text x="35" y="20.04" text-anchor="middle" font-size="14" font-weight="600" fill="#13294B">HTML5</text></g><g transform="translate(1330.8 0)"><rect width="128.8" height="30" rx="15" fill="#0969da" fill-opacity="0.16" stroke="#0969da" stroke-opacity="0.55"/><text x="64.4" y="20.04" text-anchor="middle" font-size="14" font-weight="600" fill="#13294B">Tailwind CSS</text></g><g transform="translate(1471.6 0)"><rect width="112" height="30" rx="15" fill="#1a7f37" fill-opacity="0.16" stroke="#1a7f37" stroke-opacity="0.55"/><text x="56" y="20.04" text-anchor="middle" font-size="14" font-weight="600" fill="#13294B">PostgreSQL</text></g><g transform="translate(1595.6 0)"><rect width="70" height="30" rx="15" fill="#1a7f37" fill-opacity="0.16" stroke="#1a7f37" stroke-opacity="0.55"/><text x="35" y="20.04" text-anchor="middle" font-size="14" font-weight="600" fill="#13294B">Neo4j</text></g><g transform="translate(1677.6 0)"><rect width="86.8" height="30" rx="15" fill="#1a7f37" fill-opacity="0.16" stroke="#1a7f37" stroke-opacity="0.55"/><text x="43.4" y="20.04" text-anchor="middle" font-size="14" font-weight="600" fill="#13294B">MongoDB</text></g><g transform="translate(1776.4 0)"><rect width="78.4" height="30" rx="15" fill="#4c5b73" fill-opacity="0.16" stroke="#4c5b73" stroke-opacity="0.55"/><text x="39.2" y="20.04" text-anchor="middle" font-size="14" font-weight="600" fill="#13294B">Docker</text></g><g transform="translate(1866.8 0)"><rect width="112" height="30" rx="15" fill="#4c5b73" fill-opacity="0.16" stroke="#4c5b73" stroke-opacity="0.55"/><text x="56" y="20.04" text-anchor="middle" font-size="14" font-weight="600" fill="#13294B">Kubernetes</text></g><g transform="translate(1990.8 0)"><rect width="53.2" height="30" rx="15" fill="#4c5b73" fill-opacity="0.16" stroke="#4c5b73" stroke-opacity="0.55"/><text x="26.6" y="20.04" text-anchor="middle" font-size="14" font-weight="600" fill="#13294B">AWS</text></g><g transform="translate(2056 0)"><rect width="53.2" height="30" rx="15" fill="#4c5b73" fill-opacity="0.16" stroke="#4c5b73" stroke-opacity="0.55"/><text x="26.6" y="20.04" text-anchor="middle" font-size="14" font-weight="600" fill="#13294B">HPC</text></g><g transform="translate(2121.2 0)"><rect width="70" height="30" rx="15" fill="#4c5b73" fill-opacity="0.16" stroke="#4c5b73" stroke-opacity="0.55"/><text x="35" y="20.04" text-anchor="middle" font-size="14" font-weight="600" fill="#13294B">Unity</text></g><g transform="translate(2203.2 0)"><rect width="70" height="30" rx="15" fill="#4c5b73" fill-opacity="0.16" stroke="#4c5b73" stroke-opacity="0.55"/><text x="35" y="20.04" text-anchor="middle" font-size="14" font-weight="600" fill="#13294B">Figma</text></g><g transform="translate(2285.2 0)"><rect width="70" height="30" rx="15" fill="#4c5b73" fill-opacity="0.16" stroke="#4c5b73" stroke-opacity="0.55"/><text x="35" y="20.04" text-anchor="middle" font-size="14" font-weight="600" fill="#13294B">Canva</text></g><g transform="translate(2367.2 0)"><rect width="196" height="30" rx="15" fill="#4c5b73" fill-opacity="0.16" stroke="#4c5b73" stroke-opacity="0.55"/><text x="98" y="20.04" text-anchor="middle" font-size="14" font-weight="600" fill="#13294B">Adobe Creative Suite</text></g><g transform="translate(2575.2 0)"><rect width="162.4" height="30" rx="15" fill="#4c5b73" fill-opacity="0.16" stroke="#4c5b73" stroke-opacity="0.55"/><text x="81.2" y="20.04" text-anchor="middle" font-size="14" font-weight="600" fill="#13294B">Microsoft Office</text></g><g transform="translate(2749.6 0)"><g transform="translate(0 0)"><rect width="78.4" height="30" rx="15" fill="#0969da" fill-opacity="0.16" stroke="#0969da" stroke-opacity="0.55"/><text x="39.2" y="20.04" text-anchor="middle" font-size="14" font-weight="600" fill="#13294B">Python</text></g><g transform="translate(90.4 0)"><rect width="53.2" height="30" rx="15" fill="#0969da" fill-opacity="0.16" stroke="#0969da" stroke-opacity="0.55"/><text x="26.6" y="20.04" text-anchor="middle" font-size="14" font-weight="600" fill="#13294B">C++</text></g><g transform="translate(155.6 0)"><rect width="112" height="30" rx="15" fill="#0969da" fill-opacity="0.16" stroke="#0969da" stroke-opacity="0.55"/><text x="56" y="20.04" text-anchor="middle" font-size="14" font-weight="600" fill="#13294B">TypeScript</text></g><g transform="translate(279.6 0)"><rect width="112" height="30" rx="15" fill="#0969da" fill-opacity="0.16" stroke="#0969da" stroke-opacity="0.55"/><text x="56" y="20.04" text-anchor="middle" font-size="14" font-weight="600" fill="#13294B">JavaScript</text></g><g transform="translate(403.6 0)"><rect width="61.6" height="30" rx="15" fill="#0969da" fill-opacity="0.16" stroke="#0969da" stroke-opacity="0.55"/><text x="30.8" y="20.04" text-anchor="middle" font-size="14" font-weight="600" fill="#13294B">Java</text></g><g transform="translate(477.2 0)"><rect width="78.4" height="30" rx="15" fill="#0969da" fill-opacity="0.16" stroke="#0969da" stroke-opacity="0.55"/><text x="39.2" y="20.04" text-anchor="middle" font-size="14" font-weight="600" fill="#13294B">Kotlin</text></g><g transform="translate(567.6 0)"><rect width="61.6" height="30" rx="15" fill="#0969da" fill-opacity="0.16" stroke="#0969da" stroke-opacity="0.55"/><text x="30.8" y="20.04" text-anchor="middle" font-size="14" font-weight="600" fill="#13294B">Ruby</text></g><g transform="translate(641.2 0)"><rect width="53.2" height="30" rx="15" fill="#0969da" fill-opacity="0.16" stroke="#0969da" stroke-opacity="0.55"/><text x="26.6" y="20.04" text-anchor="middle" font-size="14" font-weight="600" fill="#13294B">PHP</text></g><g transform="translate(706.4 0)"><rect width="36.4" height="30" rx="15" fill="#0969da" fill-opacity="0.16" stroke="#0969da" stroke-opacity="0.55"/><text x="18.2" y="20.04" text-anchor="middle" font-size="14" font-weight="600" fill="#13294B">R</text></g><g transform="translate(754.8 0)"><rect width="70" height="30" rx="15" fill="#0969da" fill-opacity="0.16" stroke="#0969da" stroke-opacity="0.55"/><text x="35" y="20.04" text-anchor="middle" font-size="14" font-weight="600" fill="#13294B">React</text></g><g transform="translate(836.8 0)"><rect width="86.8" height="30" rx="15" fill="#0969da" fill-opacity="0.16" stroke="#0969da" stroke-opacity="0.55"/><text x="43.4" y="20.04" text-anchor="middle" font-size="14" font-weight="600" fill="#13294B">Next.js</text></g><g transform="translate(935.6 0)"><rect width="78.4" height="30" rx="15" fill="#0969da" fill-opacity="0.16" stroke="#0969da" stroke-opacity="0.55"/><text x="39.2" y="20.04" text-anchor="middle" font-size="14" font-weight="600" fill="#13294B">Vue.js</text></g><g transform="translate(1026 0)"><rect width="112" height="30" rx="15" fill="#0969da" fill-opacity="0.16" stroke="#0969da" stroke-opacity="0.55"/><text x="56" y="20.04" text-anchor="middle" font-size="14" font-weight="600" fill="#13294B">Angular.js</text></g><g transform="translate(1150 0)"><rect width="86.8" height="30" rx="15" fill="#0969da" fill-opacity="0.16" stroke="#0969da" stroke-opacity="0.55"/><text x="43.4" y="20.04" text-anchor="middle" font-size="14" font-weight="600" fill="#13294B">Node.js</text></g><g transform="translate(1248.8 0)"><rect width="70" height="30" rx="15" fill="#0969da" fill-opacity="0.16" stroke="#0969da" stroke-opacity="0.55"/><text x="35" y="20.04" text-anchor="middle" font-size="14" font-weight="600" fill="#13294B">HTML5</text></g><g transform="translate(1330.8 0)"><rect width="128.8" height="30" rx="15" fill="#0969da" fill-opacity="0.16" stroke="#0969da" stroke-opacity="0.55"/><text x="64.4" y="20.04" text-anchor="middle" font-size="14" font-weight="600" fill="#13294B">Tailwind CSS</text></g><g transform="translate(1471.6 0)"><rect width="112" height="30" rx="15" fill="#1a7f37" fill-opacity="0.16" stroke="#1a7f37" stroke-opacity="0.55"/><text x="56" y="20.04" text-anchor="middle" font-size="14" font-weight="600" fill="#13294B">PostgreSQL</text></g><g transform="translate(1595.6 0)"><rect width="70" height="30" rx="15" fill="#1a7f37" fill-opacity="0.16" stroke="#1a7f37" stroke-opacity="0.55"/><text x="35" y="20.04" text-anchor="middle" font-size="14" font-weight="600" fill="#13294B">Neo4j</text></g><g transform="translate(1677.6 0)"><rect width="86.8" height="30" rx="15" fill="#1a7f37" fill-opacity="0.16" stroke="#1a7f37" stroke-opacity="0.55"/><text x="43.4" y="20.04" text-anchor="middle" font-size="14" font-weight="600" fill="#13294B">MongoDB</text></g><g transform="translate(1776.4 0)"><rect width="78.4" height="30" rx="15" fill="#4c5b73" fill-opacity="0.16" stroke="#4c5b73" stroke-opacity="0.55"/><text x="39.2" y="20.04" text-anchor="middle" font-size="14" font-weight="600" fill="#13294B">Docker</text></g><g transform="translate(1866.8 0)"><rect width="112" height="30" rx="15" fill="#4c5b73" fill-opacity="0.16" stroke="#4c5b73" stroke-opacity="0.55"/><text x="56" y="20.04" text-anchor="middle" font-size="14" font-weight="600" fill="#13294B">Kubernetes</text></g><g transform="translate(1990.8 0)"><rect width="53.2" height="30" rx="15" fill="#4c5b73" fill-opacity="0.16" stroke="#4c5b73" stroke-opacity="0.55"/><text x="26.6" y="20.04" text-anchor="middle" font-size="14" font-weight="600" fill="#13294B">AWS</text></g><g transform="translate(2056 0)"><rect width="53.2" height="30" rx="15" fill="#4c5b73" fill-opacity="0.16" stroke="#4c5b73" stroke-opacity="0.55"/><text x="26.6" y="20.04" text-anchor="middle" font-size="14" font-weight="600" fill="#13294B">HPC</text></g><g transform="translate(2121.2 0)"><rect width="70" height="30" rx="15" fill="#4c5b73" fill-opacity="0.16" stroke="#4c5b73" stroke-opacity="0.55"/><text x="35" y="20.04" text-anchor="middle" font-size="14" font-weight="600" fill="#13294B">Unity</text></g><g transform="translate(2203.2 0)"><rect width="70" height="30" rx="15" fill="#4c5b73" fill-opacity="0.16" stroke="#4c5b73" stroke-opacity="0.55"/><text x="35" y="20.04" text-anchor="middle" font-size="14" font-weight="600" fill="#13294B">Figma</text></g><g transform="translate(2285.2 0)"><rect width="70" height="30" rx="15" fill="#4c5b73" fill-opacity="0.16" stroke="#4c5b73" stroke-opacity="0.55"/><text x="35" y="20.04" text-anchor="middle" font-size="14" font-weight="600" fill="#13294B">Canva</text></g><g transform="translate(2367.2 0)"><rect width="196" height="30" rx="15" fill="#4c5b73" fill-opacity="0.16" stroke="#4c5b73" stroke-opacity="0.55"/><text x="98" y="20.04" text-anchor="middle" font-size="14" font-weight="600" fill="#13294B">Adobe Creative Suite</text></g><g transform="translate(2575.2 0)"><rect width="162.4" height="30" rx="15" fill="#4c5b73" fill-opacity="0.16" stroke="#4c5b73" stroke-opacity="0.55"/><text x="81.2" y="20.04" text-anchor="middle" font-size="14" font-weight="600" fill="#13294B">Microsoft Office</text></g></g></g></g>
<rect width="140" height="122" fill="url(#marquee-left)"/><rect x="1060" width="140" height="122" fill="url(#marquee-right)"/>
</svg>